<mxfile host="app.diagrams.net" modified="2024-03-04T08:02:58.539Z" agent="Mozilla/5.0 (Macintosh; Intel Mac OS X 10_15_7) AppleWebKit/537.36 (KHTML, like Gecko) Chrome/122.0.0.0 Safari/537.36" etag="l3eG1ejEj9JRuXFaL3KT" version="23.0.2" type="github">
  <diagram name="第 1 页" id="0I_rka10I-pvH_wZaUM2">
    <mxGraphModel dx="1010" dy="639" grid="1" gridSize="10" guides="1" tooltips="1" connect="1" arrows="1" fold="1" page="1" pageScale="1" pageWidth="827" pageHeight="1169" math="0" shadow="0">
      <root>
        <mxCell id="0" />
        <mxCell id="1" parent="0" />
        <mxCell id="8zORBW8XT4-lFAdW8yuF-1" value="设备网关" style="rounded=0;whiteSpace=wrap;html=1;" vertex="1" parent="1">
          <mxGeometry x="40" y="170" width="120" height="60" as="geometry" />
        </mxCell>
        <mxCell id="8zORBW8XT4-lFAdW8yuF-2" value="设备" style="rounded=0;whiteSpace=wrap;html=1;" vertex="1" parent="1">
          <mxGeometry x="340" y="170" width="120" height="60" as="geometry" />
        </mxCell>
        <mxCell id="8zORBW8XT4-lFAdW8yuF-4" value="消息路由" style="rounded=0;whiteSpace=wrap;html=1;" vertex="1" parent="1">
          <mxGeometry x="400" y="320" width="120" height="60" as="geometry" />
        </mxCell>
        <mxCell id="8zORBW8XT4-lFAdW8yuF-5" value="MQ" style="rounded=1;whiteSpace=wrap;html=1;fillColor=#e1d5e7;strokeColor=#9673a6;" vertex="1" parent="1">
          <mxGeometry x="150" y="320" width="120" height="60" as="geometry" />
        </mxCell>
        <mxCell id="8zORBW8XT4-lFAdW8yuF-6" value="" style="endArrow=classic;html=1;rounded=0;dashed=1;fillColor=#ffe6cc;strokeColor=#d79b00;" edge="1" parent="1" source="8zORBW8XT4-lFAdW8yuF-1" target="8zORBW8XT4-lFAdW8yuF-5">
          <mxGeometry width="50" height="50" relative="1" as="geometry">
            <mxPoint x="390" y="360" as="sourcePoint" />
            <mxPoint x="440" y="310" as="targetPoint" />
          </mxGeometry>
        </mxCell>
        <mxCell id="8zORBW8XT4-lFAdW8yuF-7" value="" style="endArrow=classic;html=1;rounded=0;exitX=0.75;exitY=0;exitDx=0;exitDy=0;dashed=1;fillColor=#ffe6cc;strokeColor=#d79b00;" edge="1" parent="1" source="8zORBW8XT4-lFAdW8yuF-5" target="8zORBW8XT4-lFAdW8yuF-2">
          <mxGeometry width="50" height="50" relative="1" as="geometry">
            <mxPoint x="390" y="360" as="sourcePoint" />
            <mxPoint x="440" y="310" as="targetPoint" />
          </mxGeometry>
        </mxCell>
        <mxCell id="8zORBW8XT4-lFAdW8yuF-8" value="组织服务" style="rounded=0;whiteSpace=wrap;html=1;" vertex="1" parent="1">
          <mxGeometry x="670" y="170" width="120" height="60" as="geometry" />
        </mxCell>
        <mxCell id="8zORBW8XT4-lFAdW8yuF-9" value="" style="endArrow=classic;html=1;rounded=0;entryX=0.5;entryY=1;entryDx=0;entryDy=0;exitX=0.5;exitY=0;exitDx=0;exitDy=0;" edge="1" parent="1" source="8zORBW8XT4-lFAdW8yuF-4" target="8zORBW8XT4-lFAdW8yuF-2">
          <mxGeometry width="50" height="50" relative="1" as="geometry">
            <mxPoint x="390" y="360" as="sourcePoint" />
            <mxPoint x="440" y="310" as="targetPoint" />
          </mxGeometry>
        </mxCell>
        <mxCell id="8zORBW8XT4-lFAdW8yuF-10" value="" style="endArrow=classic;html=1;rounded=0;entryX=1;entryY=0.5;entryDx=0;entryDy=0;exitX=0;exitY=0.5;exitDx=0;exitDy=0;" edge="1" parent="1" source="8zORBW8XT4-lFAdW8yuF-8" target="8zORBW8XT4-lFAdW8yuF-2">
          <mxGeometry width="50" height="50" relative="1" as="geometry">
            <mxPoint x="390" y="360" as="sourcePoint" />
            <mxPoint x="440" y="310" as="targetPoint" />
          </mxGeometry>
        </mxCell>
        <mxCell id="8zORBW8XT4-lFAdW8yuF-11" value="云应用" style="ellipse;whiteSpace=wrap;html=1;aspect=fixed;" vertex="1" parent="1">
          <mxGeometry x="720" y="320" width="80" height="80" as="geometry" />
        </mxCell>
        <mxCell id="8zORBW8XT4-lFAdW8yuF-12" value="" style="endArrow=classic;html=1;rounded=0;exitX=0;exitY=0.5;exitDx=0;exitDy=0;entryX=1.008;entryY=0.65;entryDx=0;entryDy=0;entryPerimeter=0;" edge="1" parent="1" source="8zORBW8XT4-lFAdW8yuF-11" target="8zORBW8XT4-lFAdW8yuF-4">
          <mxGeometry width="50" height="50" relative="1" as="geometry">
            <mxPoint x="450" y="310" as="sourcePoint" />
            <mxPoint x="520" y="365" as="targetPoint" />
          </mxGeometry>
        </mxCell>
        <mxCell id="8zORBW8XT4-lFAdW8yuF-13" value="" style="endArrow=classic;html=1;rounded=0;entryX=1.017;entryY=0.133;entryDx=0;entryDy=0;exitX=0.4;exitY=0.983;exitDx=0;exitDy=0;dashed=1;dashPattern=8 8;entryPerimeter=0;fillColor=#dae8fc;strokeColor=#6c8ebf;exitPerimeter=0;" edge="1" parent="1" source="8zORBW8XT4-lFAdW8yuF-2" target="8zORBW8XT4-lFAdW8yuF-5">
          <mxGeometry width="50" height="50" relative="1" as="geometry">
            <mxPoint x="390" y="180" as="sourcePoint" />
            <mxPoint x="500" y="260" as="targetPoint" />
          </mxGeometry>
        </mxCell>
        <mxCell id="8zORBW8XT4-lFAdW8yuF-14" value="" style="endArrow=classic;html=1;rounded=0;entryX=0;entryY=0.5;entryDx=0;entryDy=0;dashed=1;dashPattern=8 8;fillColor=#dae8fc;strokeColor=#6c8ebf;" edge="1" parent="1" source="8zORBW8XT4-lFAdW8yuF-5" target="8zORBW8XT4-lFAdW8yuF-4">
          <mxGeometry width="50" height="50" relative="1" as="geometry">
            <mxPoint x="450" y="310" as="sourcePoint" />
            <mxPoint x="500" y="260" as="targetPoint" />
          </mxGeometry>
        </mxCell>
        <mxCell id="8zORBW8XT4-lFAdW8yuF-15" value="" style="endArrow=classic;html=1;rounded=0;exitX=1;exitY=0.5;exitDx=0;exitDy=0;entryX=0.025;entryY=0.4;entryDx=0;entryDy=0;entryPerimeter=0;dashed=1;dashPattern=8 8;fillColor=#dae8fc;strokeColor=#6c8ebf;" edge="1" parent="1" source="8zORBW8XT4-lFAdW8yuF-4" target="8zORBW8XT4-lFAdW8yuF-11">
          <mxGeometry width="50" height="50" relative="1" as="geometry">
            <mxPoint x="450" y="310" as="sourcePoint" />
            <mxPoint x="500" y="260" as="targetPoint" />
          </mxGeometry>
        </mxCell>
        <mxCell id="8zORBW8XT4-lFAdW8yuF-16" value="" style="endArrow=classic;html=1;rounded=0;entryX=1;entryY=0.5;entryDx=0;entryDy=0;" edge="1" parent="1" source="8zORBW8XT4-lFAdW8yuF-2" target="8zORBW8XT4-lFAdW8yuF-1">
          <mxGeometry width="50" height="50" relative="1" as="geometry">
            <mxPoint x="450" y="310" as="sourcePoint" />
            <mxPoint x="500" y="260" as="targetPoint" />
          </mxGeometry>
        </mxCell>
        <mxCell id="8zORBW8XT4-lFAdW8yuF-19" value="设备网关" style="rounded=0;whiteSpace=wrap;html=1;" vertex="1" parent="1">
          <mxGeometry x="60" y="545" width="120" height="60" as="geometry" />
        </mxCell>
        <mxCell id="8zORBW8XT4-lFAdW8yuF-20" value="MQ" style="rounded=1;whiteSpace=wrap;html=1;fillColor=#e1d5e7;strokeColor=#9673a6;" vertex="1" parent="1">
          <mxGeometry x="150" y="660" width="120" height="60" as="geometry" />
        </mxCell>
        <mxCell id="8zORBW8XT4-lFAdW8yuF-21" value="设备会话服务" style="ellipse;whiteSpace=wrap;html=1;" vertex="1" parent="1">
          <mxGeometry x="260" y="545" width="120" height="80" as="geometry" />
        </mxCell>
        <mxCell id="8zORBW8XT4-lFAdW8yuF-22" value="" style="endArrow=classic;html=1;rounded=0;dashed=1;fillColor=#ffe6cc;strokeColor=#d79b00;" edge="1" parent="1" source="8zORBW8XT4-lFAdW8yuF-19" target="8zORBW8XT4-lFAdW8yuF-20">
          <mxGeometry width="50" height="50" relative="1" as="geometry">
            <mxPoint x="132" y="240" as="sourcePoint" />
            <mxPoint x="198" y="330" as="targetPoint" />
          </mxGeometry>
        </mxCell>
        <mxCell id="8zORBW8XT4-lFAdW8yuF-23" value="" style="endArrow=classic;html=1;rounded=0;dashed=1;fillColor=#ffe6cc;strokeColor=#d79b00;exitX=0.5;exitY=0;exitDx=0;exitDy=0;" edge="1" parent="1" source="8zORBW8XT4-lFAdW8yuF-20" target="8zORBW8XT4-lFAdW8yuF-21">
          <mxGeometry width="50" height="50" relative="1" as="geometry">
            <mxPoint x="146" y="595" as="sourcePoint" />
            <mxPoint x="184" y="670" as="targetPoint" />
          </mxGeometry>
        </mxCell>
        <mxCell id="8zORBW8XT4-lFAdW8yuF-24" value="设备" style="rounded=0;whiteSpace=wrap;html=1;" vertex="1" parent="1">
          <mxGeometry x="440" y="540" width="120" height="60" as="geometry" />
        </mxCell>
        <mxCell id="8zORBW8XT4-lFAdW8yuF-25" value="消息路由" style="rounded=0;whiteSpace=wrap;html=1;" vertex="1" parent="1">
          <mxGeometry x="440" y="620" width="120" height="60" as="geometry" />
        </mxCell>
        <mxCell id="8zORBW8XT4-lFAdW8yuF-26" value="组织服务" style="rounded=0;whiteSpace=wrap;html=1;" vertex="1" parent="1">
          <mxGeometry x="440" y="460" width="120" height="60" as="geometry" />
        </mxCell>
        <mxCell id="8zORBW8XT4-lFAdW8yuF-27" value="云应用" style="ellipse;whiteSpace=wrap;html=1;aspect=fixed;" vertex="1" parent="1">
          <mxGeometry x="440" y="700" width="80" height="80" as="geometry" />
        </mxCell>
        <mxCell id="8zORBW8XT4-lFAdW8yuF-28" value="" style="endArrow=classic;html=1;rounded=0;" edge="1" parent="1" source="8zORBW8XT4-lFAdW8yuF-24" target="8zORBW8XT4-lFAdW8yuF-21">
          <mxGeometry width="50" height="50" relative="1" as="geometry">
            <mxPoint x="450" y="550" as="sourcePoint" />
            <mxPoint x="500" y="500" as="targetPoint" />
          </mxGeometry>
        </mxCell>
        <mxCell id="8zORBW8XT4-lFAdW8yuF-29" value="" style="endArrow=classic;html=1;rounded=0;entryX=0.933;entryY=0.738;entryDx=0;entryDy=0;entryPerimeter=0;exitX=0;exitY=0.25;exitDx=0;exitDy=0;" edge="1" parent="1" source="8zORBW8XT4-lFAdW8yuF-25" target="8zORBW8XT4-lFAdW8yuF-21">
          <mxGeometry width="50" height="50" relative="1" as="geometry">
            <mxPoint x="450" y="533" as="sourcePoint" />
            <mxPoint x="392" y="555" as="targetPoint" />
          </mxGeometry>
        </mxCell>
        <mxCell id="8zORBW8XT4-lFAdW8yuF-30" value="" style="endArrow=classic;html=1;rounded=0;entryX=0.8;entryY=0.875;entryDx=0;entryDy=0;entryPerimeter=0;" edge="1" parent="1" source="8zORBW8XT4-lFAdW8yuF-27" target="8zORBW8XT4-lFAdW8yuF-21">
          <mxGeometry width="50" height="50" relative="1" as="geometry">
            <mxPoint x="460" y="543" as="sourcePoint" />
            <mxPoint x="402" y="565" as="targetPoint" />
          </mxGeometry>
        </mxCell>
        <mxCell id="8zORBW8XT4-lFAdW8yuF-31" value="" style="endArrow=classic;html=1;rounded=0;exitX=0;exitY=0.5;exitDx=0;exitDy=0;entryX=0.933;entryY=0.288;entryDx=0;entryDy=0;entryPerimeter=0;" edge="1" parent="1" source="8zORBW8XT4-lFAdW8yuF-26" target="8zORBW8XT4-lFAdW8yuF-21">
          <mxGeometry width="50" height="50" relative="1" as="geometry">
            <mxPoint x="470" y="553" as="sourcePoint" />
            <mxPoint x="412" y="575" as="targetPoint" />
          </mxGeometry>
        </mxCell>
        <mxCell id="8zORBW8XT4-lFAdW8yuF-32" value="" style="endArrow=none;html=1;rounded=0;" edge="1" parent="1">
          <mxGeometry width="50" height="50" relative="1" as="geometry">
            <mxPoint x="10" y="440" as="sourcePoint" />
            <mxPoint x="820" y="440" as="targetPoint" />
          </mxGeometry>
        </mxCell>
        <mxCell id="8zORBW8XT4-lFAdW8yuF-33" value="" style="endArrow=classic;html=1;rounded=0;entryX=0.013;entryY=0.675;entryDx=0;entryDy=0;dashed=1;dashPattern=8 8;fillColor=#dae8fc;strokeColor=#6c8ebf;entryPerimeter=0;" edge="1" parent="1" source="8zORBW8XT4-lFAdW8yuF-21" target="8zORBW8XT4-lFAdW8yuF-27">
          <mxGeometry width="50" height="50" relative="1" as="geometry">
            <mxPoint x="280" y="360" as="sourcePoint" />
            <mxPoint x="410" y="360" as="targetPoint" />
          </mxGeometry>
        </mxCell>
      </root>
    </mxGraphModel>
  </diagram>
</mxfile>
